<?xml version="1.0" encoding="utf-8"?>
<!-- Generator: Adobe Illustrator 15.0.0, SVG Export Plug-In . SVG Version: 6.00 Build 0)  -->
<!DOCTYPE svg PUBLIC "-//W3C//DTD SVG 1.1//EN" "http://www.w3.org/Graphics/SVG/1.1/DTD/svg11.dtd">
<svg version="1.1" id="Layer_1" xmlns="http://www.w3.org/2000/svg" xmlns:xlink="http://www.w3.org/1999/xlink" x="0px" y="0px"
	 width="297.127px" height="733.809px" viewBox="0 0 297.127 733.809" enable-background="new 0 0 297.127 733.809"
	 xml:space="preserve">
<g id="g27759_1_" transform="translate(-12.044365,0)" inkscape:export-filename="C:\Users\rober\Desktop\assets\ASSETS_2019\candy_game_2\ball\ball_green_wrapper.png" inkscape:export-ydpi="90" inkscape:export-xdpi="90">
	<rect id="rect26448_1_" x="17.65" fill="#423C23" fill-opacity="0" width="291.521" height="222.772"/>
	<path id="path26450_1_" inkscape:connector-curvature="0" opacity="0.99" fill="#132013" enable-background="new    " d="
		M113.616,26.587C95.25,26.554,76.928,27.24,58.598,27.24h-0.036v-0.083C42.239,28.851,22.093,37.65,22.093,40.021
		c0,2.371,21.282,19.083,22.85,20.776c1.57,1.694-24.901,15.708-24.104,20.532c0.828,4.996,24.778,16.697,23.208,16.697
		c-1.57,0-20.193,11.159-19.564,13.869c0.63,2.709,19.565,14.839,17.684,15.855c-1.884,1.015-22.016,17.93-19.504,20.64
		c2.512,2.709,22.75,16.228,20.79,17.921c-3.14,2.709-24.508,14.585-22.94,17.294c1.57,2.709,38.233,4.325,38.233,4.325
		l12.307,0.053c4.396,2.37,197.912,0.082,197.912,0.082s35.916-1.724,37.485-4.433s-19.113-15.538-22.252-18.247
		c-1.959-1.692,19.651-14.26,22.161-16.969c2.512-2.709-22.13-18.373-24.014-19.39c-1.884-1.016,21.595-13.144,22.222-15.854
		c0.626-2.709-20.085-15.147-21.654-15.147c-1.571,0,19.533-13.283,20.789-16.67c1.255-3.386-24.3-18.864-22.73-20.559
		c1.57-1.692,23.896-18.405,23.896-20.776c0-2.309-19.108-10.697-35.185-12.7v-0.053c0,0-0.502,0-0.51,0
		c-0.257-0.032-0.518-0.082-0.774-0.108c0,0.037-0.035,0.072-0.035,0.108c-2.139-0.032-103.803-0.533-146.896-0.599v-0.032
		c-2.626-0.036-5.231-0.053-7.856-0.053L113.616,26.587z"/>
	
		<linearGradient id="path26452_2_" gradientUnits="userSpaceOnUse" x1="-4676.5674" y1="4058.0273" x2="-4676.5674" y2="4095.6914" gradientTransform="matrix(3.7795 0 0 -3.7795 17837.5527 15479.915)">
		<stop  offset="0" style="stop-color:#81BE41"/>
		<stop  offset="1" style="stop-color:#CBDB2A"/>
	</linearGradient>
	
		<path id="path26452_1_" inkscape:connector-curvature="0" opacity="0.99" fill="url(#path26452_2_)" enable-background="new    " d="
		M63.944,33.658c-0.372,0-0.806,0.032-1.344,0.053c-4.021,0.263-8.607,0.785-12.245,1.931c-5.16,1.623-16.322,4.727-17.892,7.098
		c7.534,8.467,24.777,17.615,23.208,19.308c-1.57,1.693-30.186,16.98-27.36,19.689c2.825,2.709,25.492,12.831,26.434,15.202
		c0.942,2.371-24.181,13.888-21.983,15.582c2.197,1.693,22.912,13.525,21.027,16.234c-1.882,2.709-25.405,17.288-23.208,18.982
		c2.198,1.693,24.149,15.224,22.58,17.594c-1.57,2.371-21.642,13.544-19.445,14.223c1.537,0.474,17.429,1.298,28.227,1.741
		c6.35-46.494-8.719-101.031,4.541-147.392C65.488,34.052,66.541,33.588,63.944,33.658L63.944,33.658z M262.275,34.039
		c0.251,19.653,8.556,131.211,1.014,146.767c10.799-0.442,28.422-0.778,29.958-1.251c2.198-0.678-17.876-11.851-19.446-14.222
		c-1.568-2.371,20.414-15.902,22.61-17.594c2.198-1.693-21.354-16.273-23.237-18.982c-1.884-2.709,18.83-14.542,21.028-16.235
		c2.197-1.693-22.927-13.212-21.984-15.582c0.941-2.371,19.786-11.867,22.609-14.576c2.826-2.709-21.966-18.621-23.537-20.314
		c-1.57-1.693,15.704-10.84,23.238-19.308c-1.571-2.371-12.765-5.475-17.922-7.098c-3.639-1.145-10.314-1.341-14.337-1.604H262.275z
		"/>
	
		<radialGradient id="path26454_2_" cx="-24976.9473" cy="4672.3506" r="179.0269" gradientTransform="matrix(0.223 0.7576 0.8724 -0.2128 1587.8356 19961.0977)" gradientUnits="userSpaceOnUse">
		<stop  offset="0" style="stop-color:#B6D436"/>
		<stop  offset="1" style="stop-color:#53AD47"/>
	</radialGradient>
	<path id="path26454_1_" inkscape:connector-curvature="0" sodipodi:nodetypes="csscccc" fill="url(#path26454_2_)" d="
		M67.98,34.615c-2.512,16.934-3.14,37.254-5.964,56.896c-2.826,19.643,5.335,83.989,6.592,88.053
		c1.255,4.063,190.289,1.65,190.289,1.65c2.087-2.22,6.275-68.168,6.591-74.603c0.313-6.435-4.292-70.915-7.118-72.608
		C255.544,32.31,67.98,34.616,67.98,34.615L67.98,34.615z"/>
	
		<linearGradient id="path26456_2_" gradientUnits="userSpaceOnUse" x1="-4676.5913" y1="4083.6396" x2="-4676.5913" y2="4054.9407" gradientTransform="matrix(3.7795 0 0 -3.7795 17837.5527 15479.915)">
		<stop  offset="0" style="stop-color:#CBDB2A"/>
		<stop  offset="1" style="stop-color:#CBDB2A"/>
	</linearGradient>
	
		<path id="path26456_1_" inkscape:connector-curvature="0" sodipodi:nodetypes="ccccsscccccc" opacity="0.6018" fill="url(#path26456_2_)" enable-background="new    " d="
		M223.809,33.398c-42.489,0.131-155.826,1.224-155.826,1.224c-2.512,16.933-3.148,37.248-5.975,56.89
		c-0.876,6.09-0.673,16.483,0.036,28.038c5.537-38.417,24.505-40.439,38.709-41.671c14.617-1.267,61.641,13.792,96.447,11.258
		c34.808-2.536,40.641-30.865,52.754-33.346c5.22-1.585,12.005,10.107,13.05,12.009c0.036,0.06,0.04,0.069,0.058,0.032
		c-1.455-16.878-3.297-32.994-4.688-33.829c-0.882-0.529-15.243-0.658-34.558-0.598L223.809,33.398z"/>
	<path id="path26458_1_" inkscape:connector-curvature="0" opacity="0.3982" fill="#678238" enable-background="new    " d="
		M250.812,33.534c9.204,34.868,6.338,120.117,3.464,130.287c-1.398,4.954-3.659,11.573-5.376,17.54
		c3.191-0.049,10.007-0.135,10.007-0.135c2.088-2.218,6.256-68.186,6.57-74.621c0.315-6.434-4.284-70.915-7.107-72.607
		c-0.367-0.221-3.149-0.364-7.558-0.462V33.534z M71.092,34.567c-0.335,0-3.107,0.053-3.107,0.053
		c-2.511,16.933-3.148,37.247-5.974,56.89c-2.826,19.643,5.345,83.991,6.601,88.055c0.123,0.395,1.594,0.726,4.122,1.006
		c-0.672-9.288-1.724-21.542-2.778-24.04c-1.701-4.026-7.377-84.868,1.136-121.966V34.567z"/>
	<path id="path26460_1_" inkscape:connector-curvature="0" opacity="0.4867" fill="#CBDB2A" enable-background="new    " d="
		M196.471,33.576c-38.91,0.345-128.497,1.033-128.497,1.033C65.463,51.543,64.826,71.857,62,91.5
		c-0.757,5.267-0.716,13.795-0.239,23.468c10.626,7.389,23.919,11.775,38.323,11.775c34.89,0,110.007-25.75,110.007-57.516
		C210.092,55.756,204.991,43.378,196.471,33.576z"/>
	
		<path id="path26462_1_" inkscape:connector-curvature="0" sodipodi:nodetypes="csscccc" opacity="0.1593" fill="#010101" enable-background="new    " d="
		M264.602,120.923c-5.75,4.13,1.559,9.72-13.684,12.782c-41.363,8.308-170.321,9.405-178.562-1.187
		c-4.399-5.653-2.733-10.264-10.236-11.541c1.628,25.439,5.631,55.823,6.48,58.576c1.256,4.064,190.296,1.659,190.296,1.659
		c1.56-1.659,4.29-38.886,5.703-60.29H264.602z"/>
	<path id="path26464_1_" inkscape:connector-curvature="0" sodipodi:nodetypes="scccccccsssscscsc" fill="#F5F7D6" d="
		M221.382,43.638c-32.49,0.089-130.032,1.143-138.623,0.707c0,0-4.162,0.079-5.05,1.783c-7.392,8.192-7.959,20.131-6.419,20.598
		c1.612,0.489,7.527,0.489,7.527,0.489s3.029-10.728,5.825-14.82c25.092,0.656,163.185-0.908,164.068-2.012
		c1.014-1.268-0.659-4.136-1.67-6.038C246.721,43.75,236.151,43.597,221.382,43.638L221.382,43.638z M74.369,72.573
		c-1.901,0-3.435,1.421-3.435,3.154c0,1.733,1.534,3.127,3.435,3.127c1.088,0,2.051-1.574,2.688-2.61
		C76.42,74.958,75.455,72.573,74.369,72.573z M77.057,76.244c0.48,0.967,0.777,1.325,0.777-0.517
		C77.834,74.985,77.535,75.467,77.057,76.244z"/>
	
		<path id="path26466_1_" inkscape:connector-curvature="0" sodipodi:nodetypes="ccccccccccccccccccccccccc" opacity="0.1504" fill="#010101" enable-background="new    " d="
		M266.463,145.573c-0.048,17.047-0.888,30.544-3.166,35.244c10.798-0.442,28.421-0.777,29.958-1.251
		c2.198-0.678-17.875-11.852-19.445-14.222c-1.568-2.371,20.385-15.929,22.581-17.622c0.208-0.158,0.177-0.425-0.035-0.789
		c-0.883,0.316-1.799,0.661-2.748,1.061c-3.67,1.543-20.413-0.685-27.149-2.42H266.463z M31.603,145.708
		c-0.981,0.984-1.438,1.71-1.046,2.013c2.197,1.693,24.181,15.251,22.611,17.622c-1.57,2.37-21.672,13.545-19.476,14.222
		c1.537,0.474,17.427,1.272,28.227,1.713c1.411-10.331,1.741-21.06,1.582-32.007c-0.035-0.132-0.075-0.241-0.148-0.326
		c-1.162-1.324-18.857,0-31.75-3.236V145.708z M262.759,146.55c-0.469,2.714-3.135,17.919-4.657,19.505
		c-6.612,5.704-93.466,6.334-155.073,6.019c-38.929-0.202-34.729-15.626-38.001-18.941c1.537,13.851,3.09,24.833,3.584,26.432
		c1.255,4.064,190.295,1.658,190.295,1.658C259.93,180.137,261.436,163.734,262.759,146.55z"/>
	<path id="path26468_1_" inkscape:connector-curvature="0" opacity="0.9204" fill="#CBDB2A" enable-background="new    " d="
		M63.956,33.658c-0.372,0-0.807,0.036-1.344,0.053c-4.022,0.263-8.608,0.785-12.245,1.931c-5.16,1.623-16.321,4.727-17.891,7.098
		c7.533,8.467,24.778,17.615,23.208,19.308c-1.57,1.693-30.186,16.98-27.36,19.689c0.069,0.069,0.204,0.168,0.3,0.243h32.199
		c0-16.532,1.291-32.749,5.676-48.08c-0.995,0.151,0.058-0.312-2.539-0.243L63.956,33.658z M262.287,34.039
		c0.086,7.032,1.211,25.988,2.268,47.943h30.467c0.748-3.542-22.205-18.306-23.715-19.934c-1.571-1.693,15.704-10.84,23.237-19.308
		c-1.57-2.371-12.764-5.475-17.922-7.098c-3.639-1.145-10.316-1.341-14.338-1.604H262.287z"/>
	<path id="path26470_1_" inkscape:connector-curvature="0" opacity="0.99" fill="#C2D82E" enable-background="new    " d="
		M33.268,41.952c-0.366,0.267-0.669,0.537-0.836,0.789c7.536,8.467,24.808,17.615,23.238,19.308C54.1,63.741,25.483,79,28.31,81.71
		c2.825,2.709,25.493,12.831,26.434,15.201c0.941,2.371-24.183,13.89-21.985,15.583c2.199,1.692,22.914,13.552,21.028,16.262
		c-1.884,2.709-25.434,17.261-23.237,18.955c2.197,1.693,24.179,15.25,22.61,17.622c-1.57,2.371-21.672,13.545-19.476,14.222
		c0.344,0.106,1.497,0.225,3.046,0.354c-0.238-0.496,0.365-1.097,2.24-2.148c4.525-2.534,18.102-10.762,18.102-13.298
		c0-2.535-21.913-16.483-20.52-19.335c1.394-2.851,18.431-11.734,20.52-15.854c2.089-4.118-20.52-15.837-19.474-18.057
		c1.044-2.218,17.735-10.473,20.52-13.325c2.785-2.852-26.792-16.463-25.749-18.682c1.045-2.218,26.095-14.887,26.794-17.105
		c0.695-2.218-19.848-16.183-24.372-19.036C34.255,42.729,33.758,42.352,33.268,41.952L33.268,41.952z M294.501,42.741
		c-5.267,3.002-25.966,15.623-26.644,18.709c-0.695,3.169,23.647,17.117,23.299,19.335S269.941,93.47,269.59,96.639
		c-0.351,3.168,20.528,12.983,19.833,15.202c-0.696,2.219-20.538,12.043-19.146,16.479c1.393,4.437,20.88,15.531,21.926,18.383
		c1.044,2.852-22.252,15.531-22.252,18.384c0,2.346,14.571,11.128,17.233,14.875c3.091-0.132,5.566-0.253,6.064-0.409
		c2.196-0.676-17.876-11.851-19.446-14.222c-1.568-2.37,20.382-15.928,22.583-17.622c2.196-1.693-21.325-16.245-23.209-18.955
		c-1.883-2.709,18.83-14.567,21.028-16.262c2.198-1.693-22.926-13.211-21.984-15.583c0.943-2.369,19.786-11.839,22.61-14.549
		c2.826-2.709-21.967-18.62-23.537-20.314C269.723,60.355,286.966,51.208,294.501,42.741L294.501,42.741z"/>
	<path id="path26472_1_" inkscape:connector-curvature="0" fill="#F5F7D6" d="M223.803,33.386
		c-42.493,0.131-155.827,1.224-155.827,1.224c-1.638,11.051-2.471,23.553-3.644,36.359c3.794-19.903,6.432-31.003,6.898-31.573
		c0.524-0.634,183.903-2.333,184.949-1.224c0.841,0.892,5.049,11.566,6.272,22.68c-1.329-14.094-2.895-26.123-4.092-26.841
		c-0.883-0.529-15.244-0.658-34.558-0.598v-0.032L223.803,33.386z M63.944,33.659c-0.372,0-0.806,0.033-1.344,0.053
		c-4.021,0.262-8.607,0.786-12.245,1.93c-5.16,1.624-16.322,4.729-17.892,7.098c3.674-1.441,21.68-6,24.792-6.471
		c3.131-0.475,6.276,0.164,5.406,2.067c-0.871,1.901-1.922,20.748-2.27,27.085c-0.347,6.338-0.343,18.229,0.18,13.951
		c0.036-0.306,0.192-1.217,0.3-1.903c0.22-14.968,1.629-29.634,5.614-43.566c-0.994,0.152,0.059-0.312-2.538-0.243L63.944,33.659z
		 M262.275,34.04c0.048,4.052,0.486,12.593,1.014,22.816c0.433-8.48,0.959-20.133,1.791-20.259
		c1.046-0.158,24.004,5.221,26.614,6.172c0.716,0.259,1.461,0.491,2.181,0.68c0.222-0.233,0.45-0.476,0.658-0.707
		c-1.571-2.37-12.765-5.475-17.921-7.097C272.97,34.499,266.295,34.302,262.275,34.04z M262.902,66.236
		c0.035,0.474,0.048,0.929,0.059,1.388c0.035,0.037,0.041,0.132,0.057,0.164c0.037,0.034,0.037,0.049,0.037,0.053
		c-0.048-0.539-0.101-1.066-0.148-1.604H262.902z"/>
</g>
<g id="g28373" transform="translate(-59.728393,0)" inkscape:export-filename="C:\Users\rober\Desktop\assets\ASSETS_2019\candy_game_2\ball\ball_blue_wrapper.png" inkscape:export-ydpi="90" inkscape:export-xdpi="90">
	<g id="g27681">
		<rect id="rect26526" x="59.728" y="168.476" fill="#423C23" fill-opacity="0" width="292.086" height="222.773"/>
		<path id="path26528" inkscape:connector-curvature="0" opacity="0.99" fill="#081A28" enable-background="new    " d="
			M174.284,195.063c-21.926-0.033-43.796,0.653-65.677,0.653h-0.043v-0.083c-19.486,1.694-43.535,10.493-43.535,12.863
			c0,2.371,25.404,19.083,27.276,20.776c1.876,1.693-29.725,15.708-28.771,20.532c0.987,4.995,29.577,16.697,27.703,16.697
			c-1.875,0-24.104,11.157-23.354,13.869c0.751,2.709,23.356,14.838,21.108,15.854c-2.249,1.017-26.28,17.931-23.283,20.64
			c2.999,2.71,27.157,16.229,24.815,17.921c-3.747,2.71-29.256,14.587-27.384,17.297c1.875,2.707,45.639,4.323,45.639,4.323
			l14.69,0.052c5.246,2.371,180.344,0.083,180.344,0.083s42.873-1.724,44.747-4.434c1.874-2.709-22.815-15.538-26.564-18.248
			c-2.339-1.69,23.458-14.26,26.456-16.969c2.999-2.708-26.418-18.373-28.666-19.39c-2.248-1.015,25.777-13.142,26.528-15.853
			c0.749-2.71-23.976-15.148-25.851-15.148c-1.873,0,23.316-13.283,24.815-16.67c1.499-3.385-29.007-18.864-27.133-20.558
			c1.874-1.693,28.524-18.405,28.524-20.776c0-2.31-22.81-10.698-42.001-12.7v-0.053c0,0-0.599,0-0.608,0
			c-0.309-0.032-0.617-0.082-0.927-0.108c0,0.036-0.043,0.072-0.043,0.108c-2.551-0.032-68.004-0.533-119.444-0.598v-0.033
			c-3.134-0.036-6.246-0.053-9.377-0.053L174.284,195.063z"/>
		
			<linearGradient id="path26530_1_" gradientUnits="userSpaceOnUse" x1="-4833.5474" y1="4005.8574" x2="-4833.5474" y2="4030.5171" gradientTransform="matrix(3.7795 0 0 -3.7795 18473.0137 15479.915)">
			<stop  offset="0" style="stop-color:#00AAD4"/>
			<stop  offset="1" style="stop-color:#6DCEEF"/>
		</linearGradient>
		<path id="path26530" inkscape:connector-curvature="0" opacity="0.99" fill="url(#path26530_1_)" enable-background="new    " d="
			M114.991,202.134c-0.445,0-0.964,0.033-1.605,0.053c-4.8,0.264-10.275,0.786-14.619,1.931c-6.157,1.623-19.485,4.727-21.358,7.097
			c8.993,8.467,29.578,17.616,27.704,19.308c-1.875,1.693-36.033,16.979-32.66,19.688c3.372,2.709,30.43,12.83,31.554,15.201
			c1.125,2.371-28.865,13.89-26.242,15.583s27.35,13.526,25.101,16.233c-2.249,2.71-30.328,17.289-27.704,18.982
			c2.623,1.692,28.83,15.225,26.956,17.595c-1.874,2.371-25.834,13.544-23.213,14.224c1.835,0.473,20.805,1.298,33.695,1.738
			c7.581-46.491-10.409-101.03,5.42-147.391c-1.188,0.151,0.07-0.313-3.03-0.243H114.991z M295.833,202.515
			c0.302,19.653,10.215,131.21,1.212,146.766c12.891-0.442,33.928-0.777,35.762-1.252c2.624-0.678-21.337-11.851-23.211-14.222
			c-1.876-2.37,24.366-15.902,26.99-17.595c2.623-1.693-25.492-16.272-27.739-18.982c-2.249-2.709,22.477-14.541,25.101-16.233
			c2.623-1.692-27.366-13.212-26.241-15.583c1.123-2.371,23.617-11.867,26.99-14.576c3.372-2.709-26.224-18.621-28.098-20.314
			c-1.872-1.692,18.747-10.84,27.741-19.308c-1.875-2.371-15.236-5.474-21.393-7.098
			C308.603,202.975,300.633,202.778,295.833,202.515z"/>
		
			<radialGradient id="path26532_1_" cx="-24947.9043" cy="3804.4209" r="158.7369" gradientTransform="matrix(0.2662 0.7576 1.0414 -0.2128 2815.0708 19924.9727)" gradientUnits="userSpaceOnUse">
			<stop  offset="0" style="stop-color:#7DD1E6"/>
			<stop  offset="1" style="stop-color:#029EC6"/>
		</radialGradient>
		<path id="path26532" inkscape:connector-curvature="0" sodipodi:nodetypes="csscccc" fill="url(#path26532_1_)" d="
			M119.808,203.091c-2.998,16.934-3.747,37.254-7.12,56.896c-3.371,19.643,6.371,83.988,7.869,88.054
			c1.5,4.063,171.244,1.65,171.244,1.65c2.494-2.222,7.495-68.17,7.87-74.604c0.375-6.435-5.124-70.914-8.496-72.608
			C287.804,200.787,119.809,203.092,119.808,203.091L119.808,203.091z"/>
		
			<path id="path26534" inkscape:connector-curvature="0" sodipodi:nodetypes="ccccsscccccc" opacity="0.6018" fill="#70CDDD" enable-background="new    " d="
			M249.919,201.874c-50.722,0.132-130.104,1.224-130.104,1.224c-2.999,16.934-3.759,37.248-7.13,56.89
			c-1.047,6.09-0.804,16.483,0.042,28.037c6.61-38.417,29.252-40.439,46.208-41.671c17.45-1.267,17.675,13.792,59.224,11.258
			c41.549-2.536,48.514-30.865,62.972-33.345c6.23-1.585,14.331,10.107,15.577,12.009c0.043,0.059,0.048,0.068,0.07,0.032
			c-1.737-16.878-3.936-32.994-5.599-33.829c-1.053-0.529-18.196-0.658-41.252-0.598L249.919,201.874z"/>
		<path id="path26536" inkscape:connector-curvature="0" opacity="0.2345" fill="#010101" enable-background="new    " d="
			M282.15,202.01c10.986,34.868,7.564,120.117,4.136,130.287c-1.669,4.954-4.365,11.573-6.417,17.54
			c3.81-0.05,11.945-0.134,11.945-0.134c2.493-2.218,7.468-68.188,7.845-74.621c0.374-6.435-5.115-70.915-8.488-72.608
			c-0.438-0.22-3.76-0.363-9.021-0.462V202.01z M123.521,203.043c-0.401,0-3.708,0.053-3.708,0.053
			c-2.999,16.933-3.758,37.247-7.13,56.889c-3.373,19.643,6.38,83.99,7.878,88.056c0.146,0.396,1.905,0.726,4.922,1.005
			c-0.802-9.287-2.058-21.54-3.317-24.039c-2.03-4.026-8.806-84.867,1.355-121.965V203.043z"/>
		<path id="path26538" inkscape:connector-curvature="0" opacity="0.4867" fill="#70CDDD" enable-background="new    " d="
			M217.285,202.053c-46.449,0.345-97.482,1.033-97.482,1.033c-2.997,16.934-3.758,37.248-7.132,56.89
			c-0.903,5.267-0.853,13.796-0.283,23.469c12.685,7.387,28.551,11.774,45.745,11.774c41.65,0,75.411-25.749,75.411-57.515
			c0-13.472-6.088-25.85-16.26-35.651H217.285z"/>
		
			<path id="path26540" inkscape:connector-curvature="0" sodipodi:nodetypes="csscccc" opacity="0.1593" fill="#010101" enable-background="new    " d="
			M298.613,289.399c-6.864,4.13,1.861,9.72-16.334,12.781c-49.375,8.309-147.409,9.405-157.246-1.186
			c-5.25-5.654-3.26-10.266-12.219-11.54c1.943,25.438,6.723,55.822,7.737,58.574c1.499,4.065,171.252,1.66,171.252,1.66
			C293.666,348.029,296.926,310.803,298.613,289.399z"/>
		
			<path id="path26542" inkscape:connector-curvature="0" sodipodi:nodetypes="scccccccsssscscsc" opacity="0.9292" fill="#FFFFFF" enable-background="new    " d="
			M247.02,212.115c-38.785,0.088-99.317,1.143-109.57,0.707c0,0-4.971,0.079-6.028,1.783c-8.824,8.192-9.5,20.13-7.66,20.598
			c1.924,0.49,8.984,0.49,8.984,0.49s3.616-10.729,6.953-14.821c29.953,0.656,138.892-0.909,139.946-2.013
			c1.209-1.268-0.788-4.136-1.996-6.037C277.269,212.227,264.65,212.073,247.02,212.115z M127.433,241.049
			c-2.271,0-4.1,1.421-4.1,3.155c0,1.732,1.83,3.127,4.1,3.127c1.3,0,2.449-1.574,3.208-2.61
			C129.881,243.435,128.73,241.049,127.433,241.049z M130.641,244.72c0.574,0.967,0.928,1.326,0.928-0.517
			C131.569,243.461,131.212,243.943,130.641,244.72z"/>
		
			<path id="path26544" inkscape:connector-curvature="0" sodipodi:nodetypes="ccccccccccccccccccccccccc" opacity="0.1504" fill="#010101" enable-background="new    " d="
			M300.835,314.049c-0.055,17.048-1.059,30.545-3.78,35.244c12.891-0.442,33.929-0.777,35.763-1.25
			c2.624-0.679-21.338-11.854-23.212-14.224c-1.872-2.371,24.332-15.93,26.958-17.622c0.245-0.157,0.211-0.425-0.044-0.789
			c-1.054,0.317-2.147,0.662-3.28,1.061c-4.383,1.544-24.367-0.684-32.41-2.42H300.835z M76.386,314.183
			c-1.171,0.984-1.716,1.71-1.249,2.015c2.625,1.692,28.865,15.251,26.992,17.622c-1.875,2.368-25.87,13.545-23.248,14.224
			c1.834,0.471,20.804,1.271,33.694,1.712c1.684-10.331,2.079-21.06,1.89-32.007c-0.043-0.132-0.091-0.241-0.177-0.327
			c-1.389-1.323-22.512,0-37.902-3.236L76.386,314.183z M296.414,315.027c-0.561,2.713-3.741,17.919-5.561,19.504
			c-7.894,5.704-55.665,6.335-129.207,6.019c-46.468-0.201-41.454-15.627-45.362-18.941c1.837,13.852,3.689,24.833,4.279,26.435
			c1.5,4.063,171.251,1.656,171.251,1.656C293.036,348.613,294.833,332.211,296.414,315.027z"/>
		
			<linearGradient id="path26546_1_" gradientUnits="userSpaceOnUse" x1="-4718.0864" y1="4038.4707" x2="-4718.0864" y2="4030.5068" gradientTransform="matrix(3.7795 0 0 -3.7795 18035.7285 15479.915)">
			<stop  offset="0" style="stop-color:#B3E1EB"/>
			<stop  offset="1" style="stop-color:#FFFFFF;stop-opacity:0"/>
		</linearGradient>
		
			<path id="path26546" inkscape:connector-curvature="0" opacity="0.6106" fill="url(#path26546_1_)" enable-background="new    " d="
			M115.005,202.134c-0.446,0-0.963,0.036-1.606,0.053c-4.8,0.264-10.275,0.786-14.619,1.931c-6.157,1.623-19.484,4.727-21.357,7.097
			c8.993,8.467,29.577,17.616,27.703,19.308c-1.873,1.693-36.032,16.979-32.66,19.688c0.083,0.069,0.24,0.168,0.358,0.243h38.436
			c0-16.531,1.541-32.748,6.774-48.079c-1.187,0.151,0.07-0.312-3.029-0.243V202.134z M295.849,202.515
			c0.103,7.031,1.446,25.988,2.709,47.942h36.368c0.896-3.542-26.508-18.304-28.31-19.933c-1.874-1.692,18.745-10.84,27.739-19.308
			c-1.875-2.371-15.236-5.474-21.393-7.098C308.618,202.975,300.646,202.778,295.849,202.515z"/>
		
			<linearGradient id="path26548_1_" gradientUnits="userSpaceOnUse" x1="-4551.2866" y1="4022.7988" x2="-4553.2749" y2="3999.7444" gradientTransform="matrix(3.7795 0 0 -3.7795 17406.8027 15479.915)">
			<stop  offset="0" style="stop-color:#A3DCE7"/>
			<stop  offset="1" style="stop-color:#D8F0FA;stop-opacity:0"/>
		</linearGradient>
		<path id="path26548" inkscape:connector-curvature="0" opacity="0.99" fill="url(#path26548_1_)" enable-background="new    " d="
			M78.372,210.429c-0.436,0.267-0.799,0.537-0.998,0.788c8.994,8.467,29.613,17.615,27.74,19.308
			c-1.875,1.693-36.033,16.952-32.66,19.661c3.372,2.709,30.431,12.832,31.555,15.202c1.123,2.371-28.865,13.89-26.242,15.583
			c2.623,1.693,27.351,13.552,25.1,16.261c-2.249,2.71-30.36,17.263-27.739,18.955c2.625,1.692,28.866,15.252,26.991,17.622
			c-1.873,2.371-25.87,13.546-23.247,14.222c0.409,0.105,1.786,0.226,3.637,0.354c-0.284-0.494,0.436-1.096,2.674-2.148
			c5.4-2.533,21.607-10.762,21.607-13.299c0-2.533-26.158-16.482-24.496-19.334c1.662-2.852,22.003-11.734,24.496-15.854
			c2.494-4.119-24.494-15.838-23.248-18.057c1.246-2.218,21.17-10.474,24.497-13.325c3.325-2.852-31.983-16.463-30.736-18.683
			c1.247-2.217,31.15-14.887,31.983-17.104c0.83-2.218-23.693-16.183-29.093-19.036C79.552,211.205,78.956,210.828,78.372,210.429
			L78.372,210.429z M334.305,211.217c-6.286,3.002-30.994,15.623-31.806,18.71c-0.831,3.168,28.229,17.116,27.812,19.334
			c-0.413,2.218-25.327,12.686-25.741,15.854c-0.417,3.168,24.505,12.982,23.674,15.202c-0.831,2.219-24.52,12.042-22.856,16.479
			c1.663,4.438,24.924,15.531,26.172,18.385c1.247,2.851-26.564,15.531-26.564,18.384c0,2.346,17.396,11.127,20.574,14.874
			c3.689-0.132,6.646-0.252,7.237-0.409c2.624-0.676-21.339-11.851-23.212-14.222c-1.873-2.368,24.332-15.928,26.954-17.622
			c2.622-1.692-25.454-16.243-27.703-18.955c-2.248-2.709,22.479-14.565,25.102-16.261c2.624-1.692-27.365-13.211-26.241-15.583
			c1.122-2.37,23.618-11.84,26.989-14.549c3.374-2.709-26.224-18.62-28.097-20.314c-1.872-1.692,18.71-10.84,27.704-19.308H334.305z
			"/>
		<path id="path26550" inkscape:connector-curvature="0" fill="#FFFFFF" d="M249.909,201.862
			c-50.724,0.131-130.106,1.224-130.106,1.224c-1.958,11.051-2.95,23.553-4.35,36.358c4.53-19.903,7.677-31.003,8.235-31.572
			c0.625-0.634,163.622-2.333,164.869-1.224c1.004,0.892,6.025,11.566,7.489,22.68c-1.589-14.094-3.456-26.122-4.885-26.84
			c-1.054-0.528-18.198-0.658-41.254-0.599v-0.032L249.909,201.862z M114.991,202.135c-0.445,0-0.964,0.033-1.605,0.053
			c-4.8,0.263-10.275,0.786-14.619,1.93c-6.157,1.624-19.485,4.728-21.358,7.097c4.388-1.441,25.88-6,29.595-6.471
			c3.737-0.475,7.492,0.164,6.454,2.066c-1.04,1.901-2.294,20.748-2.71,27.085c-0.413,6.338-0.41,18.229,0.216,13.951
			c0.042-0.306,0.229-1.217,0.358-1.904c0.263-14.968,1.947-29.634,6.704-43.566c-1.188,0.152,0.068-0.312-3.03-0.243
			L114.991,202.135z M295.833,202.516c0.056,4.053,0.582,12.594,1.212,22.816c0.518-8.48,1.145-20.133,2.139-20.259
			c1.248-0.158,28.653,5.221,31.77,6.172c0.856,0.259,1.744,0.49,2.602,0.68c0.264-0.233,0.537-0.476,0.785-0.707
			c-1.875-2.37-15.236-5.474-21.393-7.098C308.602,202.976,300.633,202.778,295.833,202.516z M296.582,234.713
			c0.043,0.474,0.055,0.929,0.068,1.388c0.043,0.036,0.047,0.132,0.07,0.164c0.042,0.034,0.042,0.049,0.042,0.053
			c-0.056-0.539-0.12-1.066-0.177-1.604H296.582z"/>
	</g>
</g>
<g id="g28346" transform="translate(-85.261904,0)" inkscape:export-filename="C:\Users\rober\Desktop\assets\ASSETS_2019\candy_game_2\ball\ball_purple_wrapper.png" inkscape:export-ydpi="90" inkscape:export-xdpi="90">
	<g id="g27655">
		<rect id="rect26552" x="86.435" y="337.965" fill="#423C23" fill-opacity="0" width="291.582" height="222.772"/>
		<path id="path26554" inkscape:connector-curvature="0" opacity="0.99" fill="#291123" enable-background="new    " d="
			M200.791,364.552c-21.886-0.034-43.719,0.653-65.562,0.653h-0.043v-0.084c-19.452,1.694-43.46,10.493-43.46,12.863
			c0,2.371,25.36,19.083,27.229,20.776c1.872,1.694-29.676,15.707-28.722,20.53c0.985,4.996,29.526,16.697,27.655,16.697
			c-1.872,0-24.062,11.162-23.313,13.869c0.749,2.71,23.316,14.84,21.071,15.856c-2.246,1.016-26.235,17.929-23.243,20.641
			c2.993,2.709,27.11,16.228,24.772,17.92c-3.739,2.71-29.205,14.586-27.336,17.295c1.873,2.71,45.56,4.326,45.56,4.326
			l14.665,0.052c5.237,2.37,180.032,0.082,180.032,0.082s42.799-1.724,44.671-4.433c1.869-2.71-22.775-15.539-26.52-18.247
			c-2.336-1.694,23.418-14.261,26.409-16.969c2.995-2.71-26.371-18.375-28.614-19.39c-2.245-1.017,25.732-13.146,26.482-15.854
			c0.748-2.71-23.938-15.148-25.808-15.148c-1.869,0,23.278-13.281,24.772-16.668c1.497-3.386-28.955-18.865-27.084-20.56
			c1.871-1.693,28.473-18.405,28.473-20.776c0-2.309-22.769-10.698-41.927-12.699v-0.054c0,0-0.599,0-0.607,0
			c-0.31-0.032-0.616-0.082-0.923-0.108c0,0.038-0.045,0.072-0.045,0.108c-2.548-0.032-67.887-0.534-119.238-0.597v-0.033
			c-3.129-0.036-6.234-0.054-9.361-0.054L200.791,364.552z"/>
		
			<linearGradient id="path26556_1_" gradientUnits="userSpaceOnUse" x1="-4875.5024" y1="3956.2705" x2="-4875.5024" y2="3985.6731" gradientTransform="matrix(3.7795 0 0 -3.7795 18658.041 15479.915)">
			<stop  offset="0" style="stop-color:#6B4EA0"/>
			<stop  offset="1" style="stop-color:#AA68AB"/>
		</linearGradient>
		<path id="path26556" inkscape:connector-curvature="0" opacity="0.99" fill="url(#path26556_1_)" enable-background="new    " d="
			M141.602,371.622c-0.444,0-0.962,0.032-1.603,0.053c-4.792,0.265-10.259,0.785-14.594,1.931
			c-6.147,1.624-19.451,4.728-21.321,7.099c8.977,8.465,29.526,17.614,27.656,19.307s-35.97,16.98-32.604,19.69
			c3.366,2.707,30.376,12.829,31.5,15.199c1.124,2.373-28.815,13.889-26.197,15.583c2.618,1.693,27.303,13.526,25.057,16.236
			c-2.244,2.707-30.274,17.287-27.655,18.979c2.618,1.694,28.778,15.225,26.909,17.596c-1.87,2.37-25.79,13.545-23.172,14.223
			c1.832,0.474,20.769,1.299,33.637,1.741c7.567-46.496-10.391-101.032,5.41-147.394c-1.185,0.151,0.069-0.313-3.024-0.243H141.602z
			 M322.132,372.003c0.301,19.653,10.198,131.211,1.208,146.768c12.87-0.442,33.87-0.779,35.702-1.251
			c2.62-0.68-21.302-11.853-23.173-14.223c-1.871-2.371,24.326-15.903,26.945-17.596s-25.448-16.272-27.69-18.981
			c-2.246-2.708,22.438-14.541,25.056-16.234c2.62-1.694-27.318-13.212-26.197-15.583c1.122-2.37,23.579-11.866,26.945-14.575
			c3.368-2.71-26.177-18.622-28.049-20.314c-1.87-1.692,18.716-10.84,27.694-19.307c-1.873-2.371-15.21-5.475-21.356-7.099
			C334.88,372.462,326.925,372.267,322.132,372.003z"/>
		
			<radialGradient id="path26558_1_" cx="-24797.752" cy="3451.666" r="158.7369" gradientTransform="matrix(0.2657 0.7576 1.0396 -0.2128 3163.8584 19905.6289)" gradientUnits="userSpaceOnUse">
			<stop  offset="0" style="stop-color:#9E55A1"/>
			<stop  offset="1" style="stop-color:#703293"/>
		</radialGradient>
		<path id="path26558" inkscape:connector-curvature="0" sodipodi:nodetypes="csscccc" fill="url(#path26558_1_)" d="
			M146.409,372.579c-2.993,16.935-3.74,37.255-7.106,56.897c-3.366,19.642,6.36,83.989,7.855,88.053
			c1.497,4.063,170.949,1.65,170.949,1.65c2.489-2.219,7.48-68.169,7.857-74.604c0.373-6.436-5.116-70.915-8.483-72.608
			c-3.365-1.692-171.07,0.611-171.07,0.611H146.409z"/>
		
			<path id="path26560" inkscape:connector-curvature="0" sodipodi:nodetypes="ccccsscccccc" opacity="0.6018" fill="#9E55A1" enable-background="new    " d="
			M276.296,371.363c-50.635,0.13-129.88,1.224-129.88,1.224c-2.994,16.933-3.752,37.247-7.12,56.89
			c-1.044,6.089-0.801,16.482,0.044,28.036c6.598-38.417,29.201-40.438,46.128-41.67c17.418-1.27,17.645,13.792,59.122,11.257
			c41.478-2.535,48.43-30.865,62.862-33.347c6.22-1.583,14.305,10.108,15.549,12.01c0.046,0.06,0.05,0.069,0.072,0.033
			c-1.735-16.88-3.929-32.995-5.589-33.829c-1.052-0.529-18.166-0.659-41.183-0.6L276.296,371.363z"/>
		<path id="path26562" inkscape:connector-curvature="0" opacity="0.2345" fill="#010101" enable-background="new    " d="
			M308.474,371.499c10.966,34.867,7.55,120.115,4.129,130.286c-1.669,4.952-4.36,11.573-6.407,17.54
			c3.802-0.05,11.924-0.136,11.924-0.136c2.489-2.218,7.455-68.185,7.831-74.621c0.373-6.432-5.105-70.913-8.471-72.605
			c-0.438-0.221-3.754-0.364-9.006-0.462V371.499z M150.117,372.531c-0.4,0-3.701,0.054-3.701,0.054
			c-2.994,16.933-3.752,37.247-7.12,56.89c-3.365,19.642,6.37,83.991,7.867,88.055c0.146,0.395,1.9,0.726,4.912,1.005
			c-0.801-9.286-2.054-21.539-3.311-24.038c-2.026-4.027-8.791-84.867,1.353-121.967V372.531z"/>
		<path id="path26564" inkscape:connector-curvature="0" opacity="0.4867" fill="#D0519D" enable-background="new    " d="
			M243.718,371.541c-46.367,0.345-97.313,1.034-97.313,1.034c-2.993,16.933-3.752,37.247-7.12,56.89
			c-0.902,5.268-0.852,13.796-0.284,23.468c12.664,7.39,28.503,11.776,45.667,11.776c41.577,0,75.281-25.753,75.281-57.516
			C259.949,393.721,253.87,381.343,243.718,371.541L243.718,371.541z"/>
		
			<path id="path26566" inkscape:connector-curvature="0" sodipodi:nodetypes="csscccc" opacity="0.1593" fill="#010101" enable-background="new    " d="
			M324.906,458.888c-6.854,4.131,1.857,9.722-16.307,12.781c-49.291,8.309-147.154,9.406-156.974-1.185
			c-5.241-5.655-3.254-10.266-12.197-11.541c1.94,25.438,6.71,55.823,7.724,58.576c1.495,4.063,170.956,1.658,170.956,1.658
			C319.969,517.52,323.223,480.292,324.906,458.888z"/>
		<path id="path26568" inkscape:connector-curvature="0" sodipodi:nodetypes="scccccccsssscscsc" fill="#D3A9CE" d="
			M273.403,381.604c-38.716,0.088-99.145,1.142-109.38,0.707c0,0-4.962,0.078-6.018,1.782c-8.811,8.191-9.483,20.131-7.649,20.598
			c1.923,0.49,8.97,0.49,8.97,0.49s3.609-10.729,6.94-14.82c29.901,0.654,138.652-0.91,139.704-2.013
			c1.206-1.27-0.788-4.138-1.993-6.037C303.6,381.715,291.001,381.562,273.403,381.604z M154.023,410.537
			c-2.267,0-4.093,1.42-4.093,3.155c0,1.73,1.826,3.127,4.093,3.127c1.298,0,2.445-1.574,3.203-2.61
			C156.466,412.925,155.317,410.537,154.023,410.537z M157.225,414.209c0.572,0.968,0.926,1.325,0.926-0.517
			C158.152,412.949,157.793,413.432,157.225,414.209z"/>
		
			<path id="path26570" inkscape:connector-curvature="0" sodipodi:nodetypes="ccccccccccccccccccccccccc" opacity="0.1504" fill="#010101" enable-background="new    " d="
			M327.124,483.537c-0.055,17.048-1.059,30.546-3.774,35.244c12.869-0.442,33.871-0.777,35.702-1.25
			c2.618-0.678-21.304-11.853-23.173-14.224c-1.869-2.37,24.289-15.929,26.91-17.622c0.245-0.157,0.211-0.425-0.042-0.787
			c-1.052,0.316-2.146,0.661-3.274,1.06c-4.376,1.543-24.326-0.684-32.355-2.421H327.124z M103.063,483.673
			c-1.169,0.982-1.713,1.71-1.247,2.013c2.621,1.693,28.814,15.25,26.945,17.62c-1.871,2.373-25.826,13.548-23.207,14.224
			c1.831,0.475,20.768,1.273,33.636,1.714c1.68-10.33,2.075-21.06,1.886-32.008c-0.043-0.131-0.09-0.24-0.176-0.326
			C139.514,485.586,118.428,486.909,103.063,483.673L103.063,483.673z M322.711,484.516c-0.561,2.714-3.737,17.919-5.551,19.505
			c-7.881,5.704-55.569,6.334-128.984,6.018c-46.388-0.2-41.383-15.626-45.284-18.941c1.834,13.853,3.683,24.836,4.271,26.433
			c1.496,4.063,170.956,1.658,170.956,1.658C319.338,518.102,321.132,501.699,322.711,484.516z"/>
		
			<linearGradient id="path26572_1_" gradientUnits="userSpaceOnUse" x1="-4760.0415" y1="3993.626" x2="-4760.0415" y2="3984.1223" gradientTransform="matrix(3.7795 0 0 -3.7795 18220.7559 15479.915)">
			<stop  offset="0" style="stop-color:#AA68AB"/>
			<stop  offset="1" style="stop-color:#9E55A1;stop-opacity:0"/>
		</linearGradient>
		
			<path id="path26572" inkscape:connector-curvature="0" opacity="0.7212" fill="url(#path26572_1_)" enable-background="new    " d="
			M141.616,371.622c-0.444,0-0.962,0.036-1.603,0.053c-4.792,0.265-10.258,0.785-14.593,1.931
			c-6.146,1.624-19.451,4.728-21.322,7.099c8.978,8.465,29.527,17.614,27.656,19.307c-1.869,1.692-35.97,16.98-32.603,19.69
			c0.081,0.066,0.24,0.166,0.356,0.241h38.371c0-16.531,1.537-32.747,6.763-48.077C143.455,372.017,144.71,371.551,141.616,371.622
			L141.616,371.622z M322.147,372.003c0.104,7.031,1.443,25.988,2.705,47.943h36.305c0.893-3.543-26.462-18.304-28.261-19.934
			c-1.871-1.692,18.712-10.84,27.691-19.307c-1.87-2.371-15.21-5.475-21.356-7.099C334.896,372.462,326.938,372.267,322.147,372.003
			z"/>
		<path id="path26574" inkscape:connector-curvature="0" opacity="0.854" fill="#AA68AB" enable-background="new    " d="
			M105.046,379.917c-0.436,0.266-0.798,0.538-0.997,0.789c8.979,8.467,29.561,17.614,27.692,19.307
			c-1.872,1.692-35.971,16.952-32.605,19.661c3.367,2.71,30.379,12.832,31.5,15.202c1.123,2.37-28.813,13.89-26.197,15.583
			c2.62,1.692,27.305,13.553,25.058,16.261c-2.245,2.709-30.308,17.262-27.692,18.955c2.621,1.692,28.815,15.251,26.944,17.622
			c-1.869,2.37-25.824,13.543-23.207,14.223c0.409,0.105,1.784,0.225,3.631,0.353c-0.283-0.496,0.436-1.098,2.67-2.148
			c5.391-2.533,21.569-10.762,21.569-13.297s-26.113-16.484-24.454-19.336c1.659-2.851,21.964-11.733,24.454-15.854
			c2.489-4.117-24.451-15.837-23.207-18.057c1.244-2.218,21.134-10.472,24.454-13.325c3.319-2.852-31.927-16.464-30.683-18.681
			c1.244-2.22,31.096-14.888,31.927-17.105c0.829-2.22-23.652-16.185-29.044-19.037
			C106.223,380.694,105.629,380.317,105.046,379.917L105.046,379.917z M360.536,380.706c-6.276,3-30.942,15.623-31.75,18.709
			c-0.83,3.167,28.179,17.117,27.763,19.334c-0.413,2.22-25.284,12.686-25.697,15.855c-0.419,3.169,24.463,12.984,23.634,15.201
			c-0.83,2.218-24.478,12.044-22.817,16.479c1.661,4.437,24.881,15.531,26.127,18.384c1.241,2.852-26.52,15.531-26.52,18.383
			c0,2.347,17.365,11.129,20.537,14.876c3.685-0.132,6.634-0.255,7.226-0.408c2.621-0.678-21.3-11.853-23.171-14.223
			c-1.869-2.371,24.29-15.93,26.909-17.622c2.615-1.693-25.412-16.246-27.657-18.955c-2.244-2.708,22.44-14.566,25.058-16.261
			c2.619-1.693-27.319-13.213-26.195-15.583c1.12-2.369,23.578-11.84,26.943-14.549c3.368-2.71-26.18-18.622-28.047-20.314
			c-1.872-1.692,18.678-10.84,27.655-19.307H360.536z"/>
		<path id="path26576" inkscape:connector-curvature="0" fill="#D3A9CE" d="M276.286,371.35
			c-50.635,0.132-129.881,1.226-129.881,1.226c-1.954,11.051-2.945,23.551-4.342,36.356c4.521-19.902,7.663-31.003,8.221-31.571
			c0.624-0.634,163.339-2.334,164.585-1.224c1.001,0.891,6.016,11.565,7.477,22.68c-1.586-14.096-3.449-26.122-4.878-26.841
			c-1.051-0.528-18.164-0.656-41.182-0.597v-0.033V371.35z M141.602,371.622c-0.444,0-0.962,0.034-1.603,0.053
			c-4.792,0.265-10.259,0.787-14.594,1.931c-6.147,1.624-19.451,4.729-21.321,7.099c4.379-1.442,25.834-6,29.543-6.473
			c3.73-0.475,7.478,0.165,6.442,2.066c-1.039,1.903-2.29,20.747-2.705,27.085c-0.414,6.338-0.409,18.231,0.215,13.951
			c0.043-0.306,0.229-1.218,0.358-1.903c0.263-14.968,1.943-29.634,6.691-43.565c-1.185,0.151,0.069-0.313-3.025-0.243H141.602z
			 M322.132,372.003c0.056,4.054,0.581,12.596,1.208,22.816c0.519-8.48,1.144-20.132,2.136-20.259
			c1.246-0.156,28.604,5.222,31.717,6.172c0.854,0.261,1.739,0.492,2.598,0.68c0.263-0.231,0.537-0.475,0.783-0.706
			c-1.873-2.369-15.21-5.475-21.356-7.099C334.88,372.464,326.925,372.267,322.132,372.003z M322.881,404.2
			c0.041,0.476,0.055,0.929,0.068,1.389c0.042,0.036,0.047,0.132,0.068,0.164c0.043,0.033,0.043,0.049,0.043,0.052
			c-0.057-0.538-0.12-1.066-0.176-1.604H322.881z"/>
	</g>
</g>
<g id="g27733" transform="translate(-28.791987,0)" inkscape:export-filename="C:\Users\rober\Desktop\assets\ASSETS_2019\candy_game_2\ball\ball_yellow_wrapper.png" inkscape:export-ydpi="90" inkscape:export-xdpi="90">
	<rect id="rect26474" x="29.207" y="510.369" fill="#423C23" fill-opacity="0" width="289.721" height="223.439"/>
	<path id="path26476" inkscape:connector-curvature="0" opacity="0.99" fill="#292412" enable-background="new    " d="
		M142.832,537.037c-21.746-0.034-43.44,0.653-65.144,0.653h-0.042v-0.083c-19.328,1.699-43.182,10.524-43.182,12.901
		c0,2.379,25.199,19.141,27.056,20.84c1.859,1.698-29.485,15.754-28.54,20.593c0.979,5.01,29.337,16.746,27.479,16.746
		s-23.91,11.193-23.164,13.911c0.745,2.717,23.166,14.882,20.938,15.902c-2.231,1.019-26.068,17.983-23.093,20.702
		c2.974,2.718,26.936,16.277,24.615,17.975c-3.718,2.717-29.018,14.629-27.162,17.347c1.859,2.718,45.271,4.338,45.271,4.338
		l14.571,0.053c5.206,2.377,178.885,0.082,178.885,0.082s42.523-1.729,44.383-4.446c1.858-2.718-22.628-15.585-26.346-18.303
		c-2.321-1.696,23.269-14.303,26.239-17.019c2.976-2.718-26.202-18.429-28.433-19.447c-2.232-1.02,25.568-13.186,26.311-15.902
		c0.743-2.718-23.781-15.193-25.641-15.193s23.127-13.321,24.615-16.72c1.487-3.396-28.771-18.92-26.914-20.619
		c1.859-1.699,28.295-18.461,28.295-20.84c0-2.315-22.625-10.729-41.661-12.736v-0.053c0,0-0.593,0-0.602,0
		c-0.307-0.033-0.614-0.083-0.919-0.109c0,0.037-0.042,0.073-0.042,0.109c-2.531-0.033-67.451-0.535-118.475-0.602v-0.031
		c-3.11-0.037-6.195-0.053-9.302-0.053L142.832,537.037z"/>
	
		<linearGradient id="path26478_1_" gradientUnits="userSpaceOnUse" x1="-4729.2168" y1="3910.5059" x2="-4729.2168" y2="3939.9968" gradientTransform="matrix(3.7795 0 0 -3.7795 18047 15479.915)">
		<stop  offset="0" style="stop-color:#D3AB2A"/>
		<stop  offset="1" style="stop-color:#FDD800"/>
	</linearGradient>
	<path id="path26478" inkscape:connector-curvature="0" opacity="0.99" fill="url(#path26478_1_)" enable-background="new    " d="
		M84.021,544.127c-0.441,0-0.955,0.034-1.591,0.053c-4.762,0.266-10.192,0.789-14.499,1.937c-6.11,1.629-19.326,4.742-21.185,7.12
		c8.92,8.492,29.337,17.667,27.479,19.365c-1.859,1.698-35.742,17.031-32.396,19.747c3.347,2.718,30.184,12.869,31.299,15.247
		c1.116,2.378-28.631,13.93-26.03,15.629c2.603,1.698,27.128,13.566,24.898,16.284c-2.228,2.718-30.082,17.34-27.479,19.038
		c2.602,1.697,28.594,15.269,26.735,17.646c-1.858,2.379-25.624,13.586-23.023,14.266c1.819,0.477,20.636,1.302,33.421,1.746
		c7.519-46.633-10.324-101.333,5.376-147.834C85.848,544.523,87.095,544.058,84.021,544.127L84.021,544.127z M263.4,544.509
		c0.298,19.714,10.13,131.605,1.2,147.207c12.787-0.444,33.653-0.779,35.473-1.256c2.602-0.68-21.167-11.887-23.026-14.265
		c-1.856-2.378,24.174-15.949,26.772-17.646c2.602-1.698-25.284-16.321-27.515-19.038c-2.23-2.719,22.296-14.586,24.897-16.284
		c2.602-1.699-27.146-13.252-26.029-15.629c1.116-2.378,23.428-11.901,26.771-14.62c3.346-2.717-26.008-18.676-27.869-20.374
		c-1.859-1.698,18.594-10.873,27.515-19.365c-1.858-2.378-15.112-5.491-21.22-7.12c-4.308-1.146-12.214-1.345-16.976-1.609H263.4z"
		/>
	
		<radialGradient id="path26480_1_" cx="-24354.1641" cy="4306.9277" r="182.4118" gradientTransform="matrix(0.2297 0.6612 0.8989 -0.1858 1829.3602 17460.9844)" gradientUnits="userSpaceOnUse">
		<stop  offset="0" style="stop-color:#F6EB16"/>
		<stop  offset="1" style="stop-color:#FFCD05"/>
	</radialGradient>
	<path id="path26480" inkscape:connector-curvature="0" sodipodi:nodetypes="csscccc" fill="url(#path26480_1_)" d="M88.797,545.088
		c-2.974,16.984-3.717,37.365-7.061,57.066c-3.346,19.702,6.318,84.24,7.805,88.316c1.488,4.076,169.857,1.656,169.857,1.656
		c2.474-2.227,7.434-68.374,7.805-74.827c0.374-6.455-5.082-71.128-8.426-72.825C255.43,542.776,88.797,545.088,88.797,545.088
		L88.797,545.088z"/>
	
		<linearGradient id="path26482_1_" gradientUnits="userSpaceOnUse" x1="-4729.2451" y1="3948.5684" x2="-4729.2451" y2="3919.7832" gradientTransform="matrix(3.7795 0 0 -3.7795 18047 15479.915)">
		<stop  offset="0" style="stop-color:#F6EB16"/>
		<stop  offset="1" style="stop-color:#CBDB2A"/>
	</linearGradient>
	
		<path id="path26482" inkscape:connector-curvature="0" sodipodi:nodetypes="ccccsscccccc" opacity="0.6018" fill="url(#path26482_1_)" enable-background="new    " d="
		M217.857,543.866c-50.313,0.133-129.054,1.228-129.054,1.228c-2.974,16.985-3.728,37.359-7.074,57.061
		c-1.038,6.108-0.797,16.533,0.042,28.122c6.556-38.532,29.015-40.562,45.834-41.797c17.308-1.271,17.532,13.834,58.746,11.292
		c41.212-2.544,48.12-30.958,62.463-33.446c6.181-1.589,14.213,10.138,15.451,12.046c0.042,0.06,0.049,0.068,0.068,0.031
		c-1.722-16.928-3.903-33.093-5.55-33.929c-1.046-0.532-18.051-0.661-40.922-0.602L217.857,543.866z"/>
	<path id="path26484" inkscape:connector-curvature="0" opacity="0.2345" fill="#2C2513" enable-background="new    " d="
		M249.828,544.003c10.897,34.974,7.505,120.478,4.103,130.678c-1.657,4.968-4.332,11.607-6.366,17.593
		c3.778-0.05,11.849-0.137,11.849-0.137c2.473-2.224,7.406-68.389,7.78-74.844c0.371-6.453-5.075-71.126-8.417-72.824
		c-0.436-0.222-3.729-0.364-8.948-0.464V544.003z M92.484,545.04c-0.397,0-3.678,0.053-3.678,0.053
		c-2.974,16.984-3.728,37.358-7.074,57.06c-3.346,19.702,6.328,84.242,7.816,88.318c0.146,0.397,1.888,0.729,4.88,1.01
		c-0.796-9.315-2.04-21.606-3.289-24.112c-2.014-4.038-8.734-85.12,1.345-122.33V545.04z"/>
	<path id="path26486" inkscape:connector-curvature="0" opacity="0.4867" fill="#F6EB16" enable-background="new    " d="
		M185.485,544.046c-46.071,0.346-96.692,1.037-96.692,1.037c-2.974,16.983-3.729,37.358-7.074,57.059
		c-0.896,5.284-0.848,13.838-0.282,23.539c12.582,7.411,28.321,11.811,45.376,11.811c41.311,0,74.8-25.827,74.8-57.687
		C201.613,566.293,195.573,553.877,185.485,544.046z"/>
	
		<path id="path26488" inkscape:connector-curvature="0" sodipodi:nodetypes="csscccc" opacity="0.1593" fill="#010101" enable-background="new    " d="
		M266.156,631.655c-6.808,4.142,1.844,9.749-16.202,12.819c-48.976,8.333-146.215,9.434-155.973-1.189
		c-5.209-5.671-3.235-10.296-12.12-11.575c1.927,25.515,6.668,55.989,7.673,58.75c1.486,4.076,169.864,1.665,169.864,1.665
		c1.848-1.665,5.082-39.003,6.755-60.47H266.156z"/>
	<path id="path26490" inkscape:connector-curvature="0" sodipodi:nodetypes="scccccccsssscscsc" fill="#FFFFFF" d="M214.979,554.138
		c-38.471,0.089-98.511,1.146-108.682,0.71c0,0-4.93,0.078-5.98,1.787c-8.753,8.218-9.423,20.191-7.6,20.66
		c1.909,0.491,8.912,0.491,8.912,0.491s3.586-10.761,6.896-14.865c29.71,0.658,137.766-0.912,138.814-2.019
		c1.197-1.272-0.783-4.148-1.98-6.055C244.983,554.25,232.466,554.098,214.979,554.138L214.979,554.138z M96.362,583.159
		c-2.251,0-4.066,1.425-4.066,3.163c0,1.739,1.814,3.137,4.066,3.137c1.289,0,2.429-1.578,3.183-2.618
		C98.791,585.553,97.648,583.159,96.362,583.159z M99.545,586.841c0.568,0.971,0.922,1.33,0.922-0.519
		C100.467,585.578,100.111,586.063,99.545,586.841z"/>
	
		<path id="path26492" inkscape:connector-curvature="0" sodipodi:nodetypes="ccccccccccccccccccccccccc" opacity="0.1504" fill="#010101" enable-background="new    " d="
		M268.36,656.378c-0.058,17.099-1.05,30.636-3.749,35.35c12.785-0.443,33.653-0.78,35.473-1.255
		c2.602-0.68-21.167-11.887-23.025-14.266c-1.857-2.377,24.135-15.976,26.739-17.674c0.243-0.158,0.207-0.426-0.042-0.791
		c-1.048,0.317-2.131,0.663-3.254,1.063c-4.348,1.549-24.173-0.687-32.148-2.428H268.36z M45.727,656.514
		c-1.162,0.986-1.702,1.715-1.239,2.02c2.603,1.697,28.632,15.296,26.773,17.674c-1.859,2.377-25.661,13.586-23.06,14.265
		c1.819,0.475,20.635,1.276,33.421,1.719c1.671-10.363,2.061-21.123,1.873-32.104c-0.042-0.132-0.089-0.241-0.176-0.326
		C81.944,658.433,60.992,659.761,45.727,656.514L45.727,656.514z M263.975,657.359c-0.557,2.722-3.713,17.973-5.515,19.563
		c-7.829,5.72-55.216,6.353-128.161,6.035c-46.092-0.202-41.12-15.672-44.996-18.997c1.821,13.893,3.659,24.908,4.244,26.511
		c1.486,4.076,169.866,1.663,169.866,1.663C260.624,691.045,262.408,674.593,263.975,657.359z"/>
	
		<linearGradient id="path26494_1_" gradientUnits="userSpaceOnUse" x1="-4613.7544" y1="3947.9736" x2="-4613.7544" y2="3938.4402" gradientTransform="matrix(3.7795 0 0 -3.7795 17609.7148 15479.915)">
		<stop  offset="0" style="stop-color:#F6EB16"/>
		<stop  offset="1" style="stop-color:#F6EB16;stop-opacity:0"/>
	</linearGradient>
	
		<path id="path26494" inkscape:connector-curvature="0" opacity="0.7212" fill="url(#path26494_1_)" enable-background="new    " d="
		M84.036,544.127c-0.441,0-0.955,0.037-1.592,0.053c-4.762,0.266-10.192,0.789-14.499,1.937c-6.109,1.629-19.326,4.742-21.185,7.12
		c8.92,8.492,29.339,17.667,27.48,19.365s-35.742,17.031-32.396,19.747c0.081,0.069,0.24,0.169,0.354,0.244h38.125
		c0-16.581,1.528-32.847,6.721-48.224c-1.178,0.152,0.068-0.313-3.005-0.244L84.036,544.127z M263.413,544.509
		c0.104,7.053,1.435,26.066,2.687,48.087h36.073c0.887-3.552-26.293-18.358-28.081-19.992c-1.856-1.698,18.597-10.873,27.516-19.365
		c-1.859-2.378-15.113-5.491-21.221-7.12c-4.308-1.146-12.214-1.345-16.976-1.609H263.413z"/>
	<path id="path26496" inkscape:connector-curvature="0" opacity="0.99" fill="#F6EB16" enable-background="new    " d="
		M47.699,552.446c-0.432,0.268-0.792,0.539-0.99,0.792c8.922,8.492,29.374,17.667,27.515,19.365s-35.742,17.003-32.396,19.72
		c3.345,2.718,30.185,12.871,31.299,15.247c1.115,2.379-28.633,13.931-26.031,15.63c2.603,1.697,27.131,13.592,24.898,16.311
		c-2.23,2.717-30.114,17.313-27.514,19.011c2.602,1.697,28.629,15.296,26.771,17.674c-1.859,2.378-25.66,13.586-23.06,14.265
		c0.407,0.106,1.772,0.227,3.606,0.356c-0.282-0.498,0.433-1.102,2.652-2.155c5.358-2.542,21.434-10.795,21.434-13.338
		c0-2.542-25.947-16.532-24.297-19.394c1.65-2.859,21.824-11.769,24.297-15.9c2.473-4.131-24.297-15.885-23.058-18.111
		c1.237-2.225,20.999-10.505,24.297-13.365s-31.724-16.513-30.487-18.738c1.236-2.225,30.898-14.932,31.725-17.157
		c0.823-2.224-23.5-16.231-28.858-19.093C48.868,553.227,48.279,552.848,47.699,552.446L47.699,552.446z M301.559,553.238
		c-6.235,3.01-30.745,15.669-31.547,18.765c-0.822,3.179,27.999,17.168,27.586,19.394c-0.411,2.225-25.121,12.724-25.535,15.901
		c-0.415,3.178,24.308,13.022,23.483,15.247c-0.824,2.226-24.318,12.08-22.67,16.529c1.649,4.45,24.722,15.577,25.959,18.438
		c1.238,2.861-26.346,15.578-26.346,18.439c0,2.354,17.252,11.162,20.404,14.92c3.66-0.132,6.592-0.254,7.182-0.411
		c2.602-0.678-21.167-11.887-23.025-14.265c-1.859-2.377,24.135-15.976,26.739-17.674c2.599-1.698-25.25-16.293-27.48-19.011
		c-2.229-2.719,22.297-14.611,24.898-16.311s-27.146-13.251-26.029-15.63c1.113-2.375,23.428-11.874,26.77-14.593
		c3.347-2.717-26.01-18.675-27.868-20.374C272.22,570.905,292.635,561.73,301.559,553.238L301.559,553.238z"/>
	<path id="path26498" inkscape:connector-curvature="0" fill="#FFFFFF" d="M217.846,543.855
		c-50.313,0.13-129.052,1.228-129.052,1.228c-1.941,11.084-2.927,23.622-4.316,36.467c4.493-19.962,7.616-31.097,8.168-31.667
		c0.621-0.636,162.297-2.34,163.535-1.228c0.995,0.894,5.978,11.601,7.428,22.748c-1.574-14.137-3.427-26.201-4.846-26.921
		c-1.043-0.53-18.05-0.66-40.919-0.601v-0.031L217.846,543.855z M84.019,544.128c-0.441,0-0.955,0.034-1.592,0.053
		c-4.762,0.265-10.192,0.79-14.499,1.936c-6.109,1.63-19.325,4.744-21.185,7.12c4.35-1.445,25.671-6.018,29.355-6.491
		c3.707-0.477,7.431,0.165,6.401,2.073c-1.032,1.906-2.277,20.81-2.688,27.166c-0.412,6.357-0.408,18.283,0.212,13.992
		c0.042-0.307,0.228-1.22,0.356-1.908c0.261-15.013,1.93-29.724,6.647-43.697c-1.178,0.153,0.069-0.313-3.006-0.244L84.019,544.128z
		 M263.398,544.51c0.055,4.065,0.576,12.632,1.2,22.884c0.513-8.505,1.136-20.192,2.122-20.318
		c1.235-0.158,28.421,5.237,31.511,6.19c0.849,0.26,1.731,0.492,2.582,0.682c0.261-0.233,0.532-0.477,0.78-0.709
		c-1.861-2.377-15.112-5.491-21.22-7.119C276.063,544.973,268.159,544.773,263.398,544.51z M264.141,576.804
		c0.042,0.476,0.058,0.933,0.068,1.392c0.042,0.037,0.049,0.133,0.068,0.165c0.042,0.033,0.042,0.049,0.042,0.053
		c-0.055-0.54-0.117-1.069-0.174-1.609H264.141z"/>
</g>
</svg>
